<svg width="515" height="512" xmlns="http://www.w3.org/2000/svg">
 <g>
  <title>background</title>
  <rect fill="none" id="canvas_background" height="514" width="517" y="-1" x="-1"/>
 </g>
 <g>
  <title>Layer 1</title>
  <g id="svg_1" fill-rule="evenodd" fill="none">
   <g stroke="null" id="svg_2" fill="#47848F">
    <g stroke="null" id="svg_3"/>
    <g stroke="null" id="svg_5">
     <path stroke="null" id="svg_6" d="m190.25101,112.05428c-66.25064,-12.06645 -118.63238,0.56271 -139.50926,36.72253c-15.5788,26.98328 -11.12572,62.75858 10.79957,101.00021c1.86618,3.25491 6.01766,4.38072 9.27256,2.51456c3.25494,-1.86615 4.38076,-6.01764 2.51459,-9.27258c-19.7506,-34.44846 -23.59375,-65.32393 -10.82002,-87.44868c17.34249,-30.03809 64.06612,-41.30311 125.30796,-30.14893c3.69121,0.67229 7.22858,-1.775 7.90086,-5.46626c0.6723,-3.69121 -1.77505,-7.22855 -5.46626,-7.90085l0,0zm-94.25714,184.20515c26.78805,29.43811 61.59023,57.04956 101.28012,79.96451c96.10287,55.48502 198.41113,70.31549 248.83289,35.93506c3.09988,-2.11368 3.89941,-6.34015 1.78568,-9.44003c-2.11371,-3.09995 -6.34015,-3.89941 -9.44006,-1.78571c-45.12686,30.77008 -142.31229,16.68219 -234.38499,-36.47601c-38.50363,-22.23007 -72.20357,-48.96704 -98.0245,-77.34229c-2.52518,-2.77499 -6.82184,-2.97757 -9.59682,-0.45233c-2.77498,2.52518 -2.97749,6.82181 -0.45231,9.5968l0,0z"/>
     <path stroke="null" id="svg_7" d="m430.0224,287.995c43.37927,-51.2459 58.52588,-102.78773 37.69199,-138.87311c-15.32999,-26.55228 -47.73798,-40.57078 -90.80768,-41.13091c-3.75165,-0.04877 -6.83252,2.95297 -6.88129,6.70462c-0.04877,3.7516 2.953,6.83246 6.70459,6.88124c38.73581,0.50376 66.65594,12.58099 79.21765,34.33856c17.30508,29.97321 3.7977,75.93704 -36.29568,123.30112c-2.42407,2.86371 -2.06772,7.1503 0.79596,9.57443c2.86374,2.4241 7.15036,2.06775 9.57446,-0.79596l0,0zm-111.48434,-173.67855c-39.22208,8.4035 -80.97035,24.83401 -121.0648,47.98257c-99.20805,57.27777 -163.92369,141.73593 -154.93578,202.97574c0.54484,3.71219 3.9958,6.27988 7.70798,5.73505c3.71221,-0.54483 6.27985,-3.99588 5.73501,-7.70801c-7.9803,-54.37451 53.3638,-134.43259 148.28629,-189.23608c38.89478,-22.45593 79.31836,-38.36507 117.1178,-46.46377c3.6687,-0.78605 6.00555,-4.39732 5.21951,-8.066c-0.78607,-3.66866 -4.39731,-6.00552 -8.06601,-5.21949l0,0z"/>
     <path stroke="null" id="svg_8" d="m157.81728,407.73193c22.68073,63.33276 59.78638,102.32635 101.51039,102.32635c30.43015,0 58.58395,-20.74326 80.53812,-57.26331c1.93311,-3.21567 0.8934,-7.38956 -2.32224,-9.32263c-3.21564,-1.93307 -7.3895,-0.89334 -9.3226,2.32227c-19.73019,32.8205 -43.96542,50.67667 -68.89328,50.67667c-34.6591,0 -67.75407,-34.77887 -88.71889,-93.32025c-1.265,-3.53229 -5.15395,-5.37027 -8.68622,-4.10532c-3.53226,1.26501 -5.37027,5.1539 -4.10529,8.68622l0,0zm207.17186,-12.38855c11.74139,-37.52106 18.04742,-80.80499 18.04742,-125.90936c0,-112.54825 -39.39136,-209.56911 -95.49921,-234.48266c-3.42908,-1.52263 -7.44324,0.02286 -8.96585,3.45198c-1.52267,3.42909 0.02286,7.44327 3.45197,8.9659c50.04132,22.21989 87.42606,114.29828 87.42606,222.06478c0,43.75854 -6.10693,85.67575 -17.42737,121.85156c-1.12054,3.58072 0.87387,7.39188 4.45465,8.51236c3.58069,1.12051 7.39182,-0.87387 8.51233,-4.45456l0,0z"/>
     <path stroke="null" id="svg_9" d="m492.93701,388.68768c0,-17.95749 -14.55743,-32.51492 -32.51489,-32.51492c-17.95746,0 -32.51489,14.55743 -32.51489,32.51492c0,17.95752 14.55743,32.51495 32.51489,32.51495c17.95746,0 32.51489,-14.55743 32.51489,-32.51495l0,0zm-13.58704,0c0,10.45358 -8.47427,18.92792 -18.92786,18.92792c-10.45358,0 -18.92786,-8.47433 -18.92786,-18.92792c0,-10.45358 8.47427,-18.92789 18.92786,-18.92789c10.45358,0 18.92786,8.4743 18.92786,18.92789l0,0z"/>
     <path stroke="null" id="svg_10" d="m57.76559,421.20264c17.95748,0 32.5149,-14.55743 32.5149,-32.51495c0,-17.95749 -14.55743,-32.51492 -32.5149,-32.51492c-17.95748,0 -32.51487,14.55743 -32.51487,32.51492c0,17.95752 14.5574,32.51495 32.51487,32.51495l0,0zm0,-13.58704c-10.45358,0 -18.92786,-8.47433 -18.92786,-18.92792c0,-10.45358 8.47429,-18.92789 18.92786,-18.92789c10.45357,0 18.92789,8.4743 18.92789,18.92789c0,10.45358 -8.47432,18.92792 -18.92789,18.92792l0,0z"/>
     <path stroke="null" id="svg_11" d="m259.32767,68.11816c17.95749,0 32.51492,-14.55739 32.51492,-32.51487c0,-17.95748 -14.55743,-32.51491 -32.51492,-32.51491c-17.95746,0 -32.51486,14.55743 -32.51486,32.51491c0,17.95748 14.5574,32.51487 32.51486,32.51487l0,0zm0,-13.58701c-10.45352,0 -18.92784,-8.47429 -18.92784,-18.92786c0,-10.45358 8.47432,-18.92786 18.92784,-18.92786c10.45358,0 18.92789,8.47428 18.92789,18.92786c0,10.45357 -8.4743,18.92786 -18.92789,18.92786l0,0z"/>
     <path stroke="null" id="svg_12" d="m264.29407,292.42813c-12.69992,2.74408 -25.2119,-5.327 -27.96133,-18.02692c-2.73866,-12.69992 5.327,-25.2119 18.02696,-27.96132c12.69997,-2.74406 25.21193,5.327 27.96132,18.02693c2.74405,12.69992 -5.327,25.21194 -18.02695,27.9613z"/>
    </g>
   </g>
  </g>
 </g>
</svg>
